PathFileType	4	(X/Y/Z)	C:/Users/beibeiliu/ov580/test_trc/User3\sequence.32_training_dense_right.trc
DataRate	CameraRate	NumFrames	NumMarkers	Units	OrigDataRate	OrigDataStartFrame	OrigNumFrames
120	120	24	19	mm	120	55	109
Frame#	Time	ThumbCMC			ThumbMCP			ThumbIP			ThumbTip			IndexMCP			IndexPIP			IndexTip			MiddleMCP			MiddlePIP			MiddleTip			RingMCP			RingPIP			RingTip			PinkyMCP			PinkyPIP			PinkyTip			BackHand1			BackHand2			BackHand3	
		X0	Y0	Z0	X1	Y1	Z1	X2	Y2	Z2	X3	Y3	Z3	X4	Y4	Z4	X5	Y5	Z5	X6	Y6	Z6	X7	Y7	Z7	X8	Y8	Z8	X9	Y9	Z9	X10	Y10	Z10	X11	Y11	Z11	X12	Y12	Z12	X13	Y13	Z13	X14	Y14	Z14	X15	Y15	Z15	X16	Y16	Z16	X17	Y17	Z17	X18	Y18	Z18	
54	0.45	80.7998	-6.54705	-15.1685	62.4072	-13.9936	-42.4277	55.4909	-21.5309	-73.5252	54.6796	-31.7385	-92.5455	93.8367	11.6647	-91.366	80.2676	6.9451	-114.849	71.5801	-1.3381	-132.924	111.534	3.58017	-97.9969	100.125	-2.34234	-125.315	86.5729	-9.55968	-147.648	123.852	-10.7027	-94.0765	120.437	-16.2737	-116.662	108.288	-22.1239	-139.471	135.986	-30.1973	-84.1282	130.001	-35.7615	-104.202	123.325	-41.602	-127.946	138.832	-7.52481	-39.0321	143.344	-15.6671	-7.99999	116.188	11.6751	-21.4375	
55	0.458333	84.1698	-5.46443	-18.1712	66.8319	-11.8591	-48.0751	58.3453	-21.2585	-73.3892	64.4099	-34.3614	-96.6412	96.9684	12.1303	-91.6996	87.1462	5.63	-115.67	77.0667	-1.23494	-134.983	116.722	0.76477	-98.7295	106.079	-3.31746	-124.616	93.2493	-12.6393	-153.8	130.692	-16.1779	-92.4774	119.741	-15.822	-119.543	114.954	-25.9628	-143.451	137.94	-33.7174	-81.348	134.121	-40.7353	-105.01	126.248	-41.3638	-125.126	143.637	-10.6733	-40.468	144.264	-18.0744	-8.63867	117.547	11.0357	-22.5437	
56	0.466667	86.3585	-3.41464	-20.3221	67.9027	-11.3074	-50.4696	66.3975	-22.1154	-77.8684	73.357	-37.8394	-96.5316	103.245	9.21367	-94.3897	91.2965	7.49675	-115.608	80.0775	-1.10839	-139.974	121.505	-1.31324	-99.332	113.683	-5.92516	-124.436	100.02	-11.4774	-153.829	131.292	-16.8235	-92.1815	128.814	-21.4388	-119.537	121.268	-28.3736	-142.922	138.461	-35.5827	-81.7098	137.68	-43.6666	-103.508	131.755	-49.1171	-125.892	145.236	-16.0495	-38.9021	146.246	-18.8629	-10.1127	123.015	7.07921	-24.9897	
57	0.475	84.847	-5.53341	-19.7878	69.4502	-12.9698	-54.6286	71.8448	-27.7795	-83.6917	85.0113	-43.0301	-91.7924	101.7	10.7707	-92.695	92.9669	6.22442	-118.611	81.7544	-3.23026	-141.67	123.514	-3.1062	-99.8699	114.929	-3.51645	-128.444	105.525	-10.459	-155.21	134.856	-19.5274	-92.2745	131.399	-19.5213	-117.638	122.863	-22.1898	-144.38	142.794	-38.2646	-83.8348	137.746	-39.773	-102.332	135.592	-44.4964	-128.725	142.835	-13.6272	-38.7936	146.057	-19.6124	-13.2114	122.598	5.59933	-25.2373	
58	0.483333	84.011	-11.2473	-21.4291	68.5518	-20.7506	-52.3264	75.0032	-33.6161	-80.9078	98.4404	-49.0315	-88.8147	97.9146	7.1146	-91.3956	85.0687	6.14705	-118.039	76.6525	-1.74756	-139.319	119.981	-1.13468	-97.0622	114.377	-3.25386	-128.535	101.609	-4.5946	-157.859	130.542	-13.6102	-91.7792	131.109	-17.3871	-119.194	125.03	-18.294	-142.608	143.069	-35.997	-82.3286	140.594	-38.3565	-103.448	140.843	-40.1241	-126.358	142.265	-16.4385	-37.948	145.08	-20.1232	-8.00997	118.463	4.07209	-22.051	
59	0.491667	86.2177	-16.4722	-19.9083	70.8023	-24.2915	-54.423	88.8364	-36.4818	-79.1882	107.129	-49.5305	-86.2885	94.392	8.78056	-89.7465	86.6952	4.26253	-114.915	79.6863	-4.06936	-139.289	118.817	0.334047	-99.8116	112.929	0.167737	-126.521	104.375	-2.01425	-153.339	134.051	-13.5201	-93.0351	132.366	-13.7533	-118.222	127.855	-16.8183	-142.773	145.085	-34.7112	-81.3386	142.956	-37.8086	-102.435	138.989	-37.7279	-123.485	142.064	-13.4344	-42.1518	146.492	-19.2613	-8.52633	119.607	2.77704	-20.4686	
60	0.5	85.6011	-15.7479	-18.5159	79.1759	-23.6374	-53.5795	92.0342	-34.5326	-81.3323	116.376	-47.6223	-88.4525	99.6814	10.6426	-92.8051	86.6968	6.94482	-118.317	77.9472	-0.158998	-141.117	120.651	5.28009	-95.6329	112.4	5.53833	-123.156	107.437	0.257441	-158.259	136.796	-10.2745	-96.3352	133.681	-11.0151	-117.958	129.48	-13.1886	-144.981	147.942	-32.8964	-83.0345	139.93	-32.407	-105.638	143.317	-36.5257	-124.87	147.288	-10.9982	-40.6669	149.742	-17.2135	-10.2732	121.547	5.73179	-23.596	
61	0.508333	91.5749	-13.7795	-24.2928	79.7614	-24.145	-57.778	97.3285	-35.2316	-85.7876	121.84	-45.5648	-85.3269	104.381	12.7349	-89.9641	96.4616	6.54291	-119.707	84.3504	0.846163	-139.269	129.327	3.50261	-96.987	119.111	7.08786	-126.875	111.059	3.24542	-156.444	139.637	-8.13611	-94.6752	138.763	-8.11751	-116.726	136.353	-11.778	-144.042	149.926	-28.5628	-86.4135	148.699	-33.5271	-103.73	145.688	-32.659	-130.512	150.95	-11.092	-42.7663	153.331	-16.7313	-12.269	122.82	7.43492	-23.3631	
62	0.516667	94.0466	-17.5202	-24.3425	86.3199	-28.0168	-58.6131	105.352	-39.0922	-87.0489	128.039	-50.7625	-87.679	111.208	4.56127	-92.358	102.874	-0.284648	-117.466	90.0621	-5.95966	-142.619	133.861	-0.361355	-103.489	125.114	-0.303276	-127.137	119.917	-5.90071	-160.096	147.799	-16.1777	-94.1986	142.752	-12.8466	-121.523	141.85	-17.1202	-149.263	158.456	-35.7879	-84.487	153.064	-36.4884	-106.754	149.831	-36.8046	-129.746	154.155	-15.1215	-39.8959	158.387	-21.6754	-10.1805	127.703	0.67906	-26.4293	
63	0.525	94.3357	-21.0929	-24.6285	88.2003	-29.9683	-58.0004	103.938	-40.8371	-85.1118	131.384	-54.2084	-86.9537	111.691	-0.408148	-92.6185	97.8919	-1.65591	-119.162	93.9444	-12.645	-142.719	134.086	-6.47963	-99.9428	127.298	-6.68429	-124.081	122.937	-10.5635	-159.983	148.624	-20.8599	-92.7904	146.561	-20.4737	-118.308	144.058	-22.5015	-143.718	158.809	-38.9745	-83.0616	153.392	-39.0903	-101.551	155.254	-39.1785	-125.556	156.085	-16.532	-41.8745	156.948	-24.51	-8.77409	125.818	-1.99064	-25.2067	
64	0.533333	93.805	-19.3146	-17.527	86.1589	-23.6533	-58.433	99.6855	-34.607	-83.1111	128.888	-45.0402	-85.4242	105.788	10.3611	-88.0501	94.9808	5.83114	-118.155	90.5163	-3.08095	-140.519	128.01	4.54721	-97.43	125.462	1.57788	-124.108	116.376	1.35867	-154.436	145.495	-10.8529	-91.7418	145.478	-9.56136	-120.77	140.679	-10.0153	-141.286	155.531	-29.2432	-82.895	154.31	-30.3051	-104.326	157.787	-30.5553	-124.935	154.565	-11.6408	-41.2715	156.765	-18.7769	-9.05059	126.023	1.49192	-21.0265	
65	0.541667	94.2327	-11.3185	-21.1424	89.2983	-17.4883	-56.9615	103.215	-24.4678	-84.4872	128.957	-34.4101	-87.1132	107.603	20.7888	-87.9681	100.921	15.3973	-117.958	92.8367	9.50629	-138.764	133.565	17.3364	-100.104	127.011	17.3011	-123.55	116.899	15.9451	-153.225	145.509	5.32141	-93.6213	144.672	7.84599	-117.942	141.335	7.23253	-145.131	158.946	-15.2906	-85.519	160.659	-17.4302	-108.262	160.886	-16.1756	-126.459	155.188	-0.827702	-38.6582	155.503	-9.31937	-8.80082	128.805	12.6717	-23.3588	
66	0.55	96.449	-12.9528	-26.0648	92.4756	-22.7177	-60.5734	111.098	-29.1158	-89.8385	136.702	-36.528	-86.7872	110.8	14.8395	-97.1484	101.143	12.5347	-120.598	94.2654	1.47659	-147.891	135.029	14.5116	-100.685	130.492	14.0624	-128.912	124.203	8.8248	-162.222	152.66	4.07738	-98.8865	152.557	5.1113	-124.296	149.423	2.91906	-147.407	166.912	-15.3104	-85.6064	168.854	-17.7181	-104.175	174.617	-21.3569	-129.781	159.873	2.07918	-45.2523	159.395	-5.93622	-14.6243	128.254	11.13	-25.8138	
67	0.558333	94.1079	-25.036	-28.3508	92.9777	-39.814	-62.2978	115.825	-48.6425	-84.701	139.15	-56.1543	-84.0177	109.424	-8.36448	-103.141	99.6482	-16.1649	-127.733	97.4664	-28.3454	-151.165	130.368	-8.65881	-110.496	130.472	-13.895	-133.373	126.67	-20.4269	-163.133	153.499	-17.6977	-97.1835	153.162	-19.2187	-122.542	153.946	-24.9027	-148.993	170.621	-34.2205	-84.0263	171.998	-37.4613	-108.127	180.07	-43.099	-125.448	155.468	-9.3133	-45.7763	159.103	-10.9646	-14.6387	122.736	2.25354	-34.8658	
68	0.566667	85.9355	-35.8435	-25.5673	82.7845	-55.3407	-54.658	102.275	-71.5497	-80.1731	130.412	-74.7118	-77.0306	97.3107	-29.3041	-100.391	90.264	-39.6592	-124.169	80.4452	-53.2495	-145.504	122.298	-31.2134	-111.565	118.245	-40.0129	-132.406	113.257	-49.8889	-162.026	143.376	-38.4308	-98.7769	140.336	-43.6352	-121.709	140.718	-51.7255	-149.882	158.6	-52.0136	-83.2985	160.003	-59.7705	-99.0026	167.959	-67.7869	-123.212	143.323	-19.8581	-47.7309	148.374	-17.2377	-20.5712	116.857	-9.79948	-37.8216	
69	0.575	76.4601	-38.2695	-22.5026	66.7233	-60.7326	-45.5082	86.026	-79.9649	-69.113	109.155	-86.4221	-65.8797	75.8006	-40.7998	-98.1943	67.4131	-52.8554	-117.983	58.9194	-67.697	-136.507	102.049	-43.9594	-104.367	95.1201	-54.8821	-127.075	92.484	-71.8257	-154.714	124.035	-52.5352	-92.5331	119.834	-61.2524	-115.228	122.884	-76.4248	-141.004	137.95	-65.6494	-79.8828	144.187	-78.1976	-92.0039	146.801	-90.0994	-111.241	131.911	-30.0123	-48.8907	132.382	-20.7222	-16.8175	100.2	-14.8372	-31.9652	
70	0.583333	64.4667	-29.8153	-13.7166	50.4464	-53.5691	-37.5806	59.6543	-78.9444	-58.4289	86.1436	-89.9069	-56.2192	62.0934	-45.0391	-92.6242	47.6313	-55.2336	-109.72	32.9793	-71.5509	-128.23	86.3055	-54.3075	-96.5911	72.1939	-63.4731	-116.335	64.3438	-82.8737	-140.347	100.074	-63.5722	-85.4615	95.2267	-74.5483	-106.659	88.3307	-90.379	-128.562	113.856	-77.5732	-72.0971	112.418	-94.1744	-86.5753	109.596	-104.554	-100.644	117.572	-39.9301	-45.6212	123.414	-28.5147	-18.7553	94.5412	-13.9993	-33.4813	
71	0.591667	62.9169	-10.342	-15.4954	38.1255	-28.4211	-35.8877	45.0432	-59.357	-50.5817	62.8419	-80.9957	-47.6845	54.6369	-31.8955	-88.4879	37.7599	-44.7747	-106.662	20.7099	-51.4318	-120.676	67.2459	-50.5796	-94.2247	54.2244	-59.4402	-110.94	33.7602	-75.4445	-134.958	79.4525	-66.29	-80.647	71.2099	-80.1244	-97.0508	55.9134	-93.0471	-119.834	87.8346	-81.552	-59.9038	78.1808	-92.6266	-74.0522	69.4084	-107.16	-86.5331	110.072	-42.8969	-40.4123	119.051	-30.8532	-12.2688	95.3246	-10.1465	-29.9941	
72	0.6	78.8657	9.62741	-17.7824	49.1031	-2.19745	-42.0343	40.9029	-32.0807	-52.2277	47.7627	-56.5722	-43.9022	63.7711	-17.4227	-88.9642	41.2423	-21.9265	-110.423	21.8777	-26.5611	-124.739	64.2722	-39.64	-92.4714	46.7262	-46.449	-111.201	25.3166	-49.3275	-131.593	67.9622	-54.9659	-76.6296	51.1266	-62.4253	-96.7455	33.74	-75.5074	-113.113	66.6077	-68.8031	-55.0865	48.301	-79.0393	-69.698	35.265	-93.285	-81.4361	103.763	-43.9193	-38.7966	115.781	-38.4468	-15.4998	105.315	-7.01552	-38.1049	
73	0.608333	104.538	18.7694	-28.6654	73.0384	24.9488	-50.4478	51.9348	0.031121	-56.416	45.5668	-23.4812	-47.9028	81.7852	-2.36986	-96.9628	65.0682	5.37622	-117.708	47.0947	7.01346	-133.172	71.8987	-22.694	-96.451	55.0381	-20.9657	-113.79	33.5707	-16.6897	-137.846	65.2408	-35.7948	-78.4992	45.7422	-41.2239	-97.7297	26.4252	-41.3577	-115.585	53.2825	-46.3725	-54.6712	33.2723	-50.4909	-65.7706	15.5651	-56.191	-80.4669	98.351	-37.9526	-41.175	113.792	-37.0102	-12.8376	121.655	-10.0462	-37.972	
74	0.616667	124.035	18.335	-29.1816	97.8381	31.2108	-53.3625	69.8854	21.3252	-60.0952	54.2765	2.2068	-49.2141	98.279	3.99071	-99.3302	85.8401	15.2028	-122.887	69.8434	22.9294	-137.831	79.2322	-10.9629	-98.4318	62.9092	-5.17481	-118.79	47.8245	2.89779	-141.257	66.8056	-20.5401	-79.2413	46.4401	-17.1091	-101.838	32.7843	-13.2614	-117.253	51.1389	-22.5612	-56.1694	30.7573	-19.1303	-70.0072	14.4817	-16.9875	-83.7509	92.4848	-33.8364	-40.5365	108.458	-35.6395	-10.8338	126.254	-17.8246	-41.1962	
75	0.625	136.353	11.2626	-29.019	118.383	32.5442	-54.0831	87.5489	31.3481	-64.2136	61.1001	15.8815	-55.8332	111.063	2.43665	-101.101	105.079	14.5	-122.926	98.1784	25.7025	-143.492	91.4906	-8.60357	-96.9891	79.3035	1.1208	-122.959	65.0801	12.1414	-149.819	69.5502	-10.8751	-84.5093	60.8008	-5.85694	-101.53	44.5661	2.62752	-122.731	56.2939	-8.28772	-57.8912	40.9605	-1.47646	-69.6741	23.023	3.52096	-86.5835	90.585	-30.1221	-39.0792	102.484	-33.8474	-9.34471	129.454	-25.6657	-38.7336	
76	0.633333	144.151	-3.34745	-24.9116	128.988	16.4902	-57.2317	100.401	19.6543	-67.5285	73.0366	13.6959	-62.4231	122.384	-18.1973	-96.042	125.326	-6.93714	-122.547	115.817	4.58961	-147.931	101.405	-23.3944	-98.502	92.623	-15.8084	-123.711	87.4135	-5.8499	-150.822	82.8972	-20.8495	-83.7035	70.5773	-15.7873	-108.06	60.8233	-8.14993	-128.459	65.8991	-12.989	-63.2909	53.0044	-5.89175	-77.2154	39.3276	-0.857098	-97.5801	96.5209	-37.0353	-33.7081	98.3418	-43.0072	-8.89576	130.508	-38.9397	-28.1161	
77	0.641667	152.733	-20.3421	-22.5912	141.364	-2.97866	-52.8211	114.952	-0.489261	-71.1887	86.2533	-4.97829	-67.0635	141.328	-43.4863	-96.6573	141.432	-35.8903	-120.486	136.607	-29.2909	-144.813	113.808	-47.9462	-96.3103	113.244	-43.9251	-121.516	104.604	-38.3558	-151.498	90.8954	-43.7591	-86.9324	89.618	-40.9905	-107.283	81.8899	-36.7838	-130.928	73.2211	-31.0564	-64.9189	63.1118	-25.117	-83.7511	51.7428	-20.4714	-104.741	102.493	-52.7255	-34.0465	102.369	-53.557	-5.66517	133.819	-54.6091	-24.1398	
